<svg xmlns="http://www.w3.org/2000/svg" version="1.1" xmlns:xlink="http://www.w3.org/1999/xlink" xmlns:svgjs="http://svgjs.dev/svgjs" viewBox="0 0 11.482423749471504 11.414162995379971"><g transform="matrix(1,0,0,1,3.505338000983317,3.2812230041074892)"><g><path d=" M -0.33557982504484923 -0.6525279298179285 Q -0.3974402366368187 -0.6002374959158071 -0.46721184382365366 -0.580541739251845 Q -0.5369834510104886 -0.560845982587883 -0.6065060052892269 -0.5695128416821504 Q -0.6760285595679653 -0.578179700776418 -0.7371418124356448 -0.610977114148985 Q -0.7982550653033245 -0.6437745275215523 -0.8427987682569835 -0.6964704336924892 Q -0.8886335930353861 -0.7506937574335983 -0.9096521346860484 -0.8173831187056886 Q -0.9306706763367109 -0.8840724799777788 -0.9259088458786312 -0.9535676234821167 Q -0.9211470154205516 -1.0230627669864543 -0.8894044281272998 -1.088521976819222 Q -0.857661840834048 -1.1539811866519896 -0.7973288468122506 -1.2049804987293673 Q -0.735468435220281 -1.2572709326314886 -0.6650512671210742 -1.2762029805103645 Q -0.5946340990218675 -1.2951350283892407 -0.5251706186794862 -1.2857635344462441 Q -0.455707138337105 -1.2763920405032478 -0.39459388546942537 -1.2435946271306806 Q -0.33348063260174576 -1.2107972137581133 -0.2895824905604587 -1.1588650163722625 Q -0.24439322669442787 -1.1054054014162396 -0.22331561110740838 -1.0394206749928783 Q -0.2022379955203889 -0.9734359485695168 -0.20667704552228267 -0.903558950672636 Q -0.21111609552417637 -0.8336819527757551 -0.24279960888107105 -0.7689273777917165 Q -0.2744831222379657 -0.7041728028076779 -0.33557982504484923 -0.6525279298179285 M -0.44573444531501044 -0.7859406714625576 Q -0.41365867634139664 -0.8130542297821762 -0.4003126786016792 -0.8452859586270808 Q -0.38696668086196173 -0.8775176874719854 -0.38950450418682436 -0.9107262624605601 Q -0.392042327511687 -0.9439348374491348 -0.40641338461782717 -0.9756519104170499 Q -0.4207844417239673 -1.007368983384965 -0.4433790736569827 -1.0340987908629766 Q -0.46661926650236996 -1.0615923071260742 -0.4958826449176881 -1.080720942302738 Q -0.5251460233330061 -1.0998495774794017 -0.5572047827563955 -1.1067947876442015 Q -0.5892635421797849 -1.1137399978090012 -0.6229447086592164 -1.105565095694307 Q -0.6566258751386476 -1.0973901935796126 -0.6879379353271754 -1.070922196172366 Q -0.7200137043007893 -1.0438086378527476 -0.7329778476479637 -1.0118996894640289 Q -0.7459419909951381 -0.9799907410753101 -0.7437860220628185 -0.9464593856305497 Q -0.7416300531304989 -0.9129280301857892 -0.7272589960243587 -0.8812109572178739 Q -0.7128879389182186 -0.8494938842499586 -0.6902933069852031 -0.8227640767719472 Q -0.6670531141398158 -0.7952705605088496 -0.6381125161806838 -0.7765237797247289 Q -0.6091719182215516 -0.7577769989406081 -0.5767903783419762 -0.7504499343832653 Q -0.5444088384624008 -0.7431228698259226 -0.5111095263755125 -0.7509749914844309 Q -0.47781021428862425 -0.7588271131429392 -0.44573444531501044 -0.7859406714625576 M -0.5920451885549806 -0.835105358104166 L -0.4530501896693207 -0.952597444155846 L -0.04859829127401205 -0.9016596204446687 L -0.18759329015967197 -0.7841675343929887 L -0.5920451885549806 -0.835105358104166 M 0.30407948066740814 -1.0931022332812468 Q 0.22975530965765656 -1.0518600509467342 0.16283112686987763 -1.0467459764275313 Q 0.09590694408209874 -1.0416319019083287 0.038467561514256836 -1.065797317903612 Q -0.01897182105358508 -1.0899627338988953 -0.0655213934820214 -1.136753623041225 Q -0.11207096591045773 -1.1835445121835542 -0.14603511606829178 -1.2447526530151145 L -0.32313389903414064 -1.5639093873511067 L -0.15262550671765157 -1.6585238056479301 L 0.024473276248197257 -1.3393670713119379 Q 0.04145535132711428 -1.3087630008961577 0.06310263405385155 -1.2841785515317992 Q 0.08474991678058884 -1.259594102167441 0.10999600058657816 -1.2450120840471337 Q 0.13524208439256752 -1.2304300659268268 0.16282596277585687 -1.2291534871647052 Q 0.19040984115914628 -1.2278769084025833 0.2201395095630469 -1.2443737813363884 Q 0.250743579978827 -1.2613558564153053 0.2646937971598106 -1.285679537070243 Q 0.2786440143407942 -1.3100032177251808 0.27895018881269207 -1.339335900132229 Q 0.27925636328459 -1.3686685825392773 0.2698507087241648 -1.4000458619352025 Q 0.26044505416373953 -1.4314231413311278 0.24394818122993445 -1.4611528097350284 L 0.06684939826408559 -1.7803095440710206 L 0.23735779058057466 -1.874923962367844 L 0.4144565735464235 -1.5557672280318517 Q 0.4503615322847052 -1.4910614791527739 0.46436363034021877 -1.425638308562808 Q 0.47836572839573244 -1.360215137972842 0.46755375289780654 -1.2993209577432645 Q 0.45674177739988064 -1.2384267775136872 0.4166983125266408 -1.1859003944196116 Q 0.37665484765340096 -1.1333740113255357 0.30407948066740814 -1.0931022332812468 M 0.7121116993995522 -1.2978732088490919 L 0.45693958417359726 -1.9604342940413266 L 0.638910586444704 -2.0305167763921173 L 0.894082701670659 -1.3679556911998823 L 0.7121116993995522 -1.2978732088490919 M 0.9082316150653296 -1.765228254307982 Q 0.8930859415684972 -1.8284390807092192 0.902348413157394 -1.894927475336138 Q 0.9116108847462909 -1.9614158699630568 0.945433646169671 -2.021963543821737 Q 0.979256407593051 -2.0825112176804175 1.0377916035996684 -2.1278998817769392 Q 1.0963267996062858 -2.173288545873461 1.1789871110540575 -2.193094426600088 Q 1.2781794847913837 -2.21686148347204 1.3619904683315285 -2.193240115221373 Q 1.445801451871673 -2.169618746970707 1.498093724512043 -2.1101669326829557 L 1.3778941592332716 -1.9723661180743535 Q 1.3570966313008839 -2.0033735822064225 1.3288438152505742 -2.0161418391441317 Q 1.3005909992002644 -2.0289100960818414 1.2711279052977797 -2.0295628576718348 Q 1.241664811395295 -2.0302156192618277 1.2154080065824735 -2.023924339501605 Q 1.174564087984751 -2.0141379043190364 1.1487482942533664 -1.990985263130209 Q 1.1229325005219817 -1.967832621941381 1.110260532361833 -1.9370321150795098 Q 1.0975885642016845 -1.9062316082176385 1.0960394007337417 -1.8719263594567042 Q 1.0944902372657987 -1.8376211106957698 1.1021795791949598 -1.8055294603689878 Q 1.1108009625700799 -1.7695479130328988 1.1294205316363244 -1.7390469024301771 Q 1.1480401007025691 -1.7085458918274554 1.1746368345809084 -1.6876685417320814 Q 1.2012335684592472 -1.6667911916367075 1.2343891885775584 -1.6593108938772434 Q 1.2675448086958694 -1.651830596117779 1.304498830284285 -1.6606849898543887 Q 1.3307556350971068 -1.6669762696146113 1.3560043260895924 -1.6817665908811008 Q 1.381253017082078 -1.6965569121475905 1.399192728017288 -1.720393161256062 Q 1.417132438952498 -1.7442294103645335 1.4213457984127473 -1.7781447107768655 L 1.598105188874221 -1.7228083042826932 Q 1.5897997683728256 -1.6673464255704191 1.5507699133839359 -1.6199473705213334 Q 1.5117400583950462 -1.572548315472248 1.455990356799839 -1.5391384251395137 Q 1.4002406552046314 -1.5057285348067795 1.340919725812701 -1.491514902755906 Q 1.2640942598788896 -1.4731070841982175 1.1930573699645626 -1.4884778444689322 Q 1.1220204800502356 -1.503848604739647 1.0635949090865053 -1.543835510816038 Q 1.005169338122775 -1.583822416892429 0.9646228288847031 -1.6414612110210969 Q 0.924076319646631 -1.6991000051497647 0.9082316150653296 -1.765228254307982 M 1.729366010584839 -1.5771556582444473 L 1.6896694073261405 -2.286045057015315 L 1.8843643830449 -2.296947645234253 L 1.8994602744249682 -2.02736998654674 L 2.10002650999491 -2.3090243583383074 L 2.3196823800365873 -2.3213247142776225 L 2.0798655560272667 -1.98939717561582 L 2.3773508272077866 -1.6134417082654267 L 2.1537012140744425 -1.6009177094908513 L 1.9633838230403682 -1.8516691614706617 L 1.9125992909965093 -1.792737579911312 L 1.9240609863035982 -1.5880582464633857 L 1.729366010584839 -1.5771556582444473 M 2.4434521087063983 -1.6017312954400345 L 2.524755944663056 -2.3070607831680983 L 2.8287430196557146 -2.272019974995229 Q 2.8804009539681923 -2.266065327854741 2.9217067524258615 -2.240164922186597 Q 2.9630125508835303 -2.214264516518453 2.9907368571241455 -2.17533364389175 Q 3.0184611633647602 -2.1364027712650464 3.0308074975241244 -2.0906882436745162 Q 3.0431538316834876 -2.0449737160839865 3.0380007716580657 -2.0002697344674187 Q 3.030786487622475 -1.9376841602042245 2.9950678471977557 -1.8854306557647171 Q 2.9593492067730365 -1.83317715132521 2.9031293697558747 -1.803922580301799 Q 2.8469095327387133 -1.7746680092783882 2.7773700057796082 -1.7826838804290446 L 2.6621330753902344 -1.7959673240501324 L 2.63716936237819 -1.5794013686632058 L 2.4434521087063983 -1.6017312954400345 M 2.6816001910418286 -1.9648490323793872 L 2.783922637853083 -1.9530542505434212 Q 2.795843699617501 -1.9516801012033087 2.807572926683283 -1.957374417004116 Q 2.8193021537490655 -1.9630687328049234 2.828699528916986 -1.9790980603002786 Q 2.8380969040849067 -1.9951273877956337 2.841303252545169 -2.0229431985792754 Q 2.8447386258954506 -2.0527458529903204 2.8381839958216424 -2.070110668698975 Q 2.831629365747834 -2.0874754844076295 2.8199559239691268 -2.0953641317593066 Q 2.808282482190419 -2.103252779110983 2.7963614204260008 -2.1046269284510957 L 2.699006082683254 -2.115849148062015 L 2.6816001910418286 -1.9648490323793872 M 3.083549256326376 -1.5093071215413847 L 3.2514117426815003 -2.19917825854791 L 3.4408833929861093 -2.153075181309531 L 3.273020906630985 -1.4632040443030057 L 3.083549256326376 -1.5093071215413847 M 3.5110286425337063 -1.7816031630191056 Q 3.5346024644612695 -1.8421777032132132 3.5801015430032432 -1.8915369359040812 Q 3.6256006215452175 -1.9408961685949495 3.687897057044122 -1.9713781981227039 Q 3.750193492543026 -2.0018602276504582 3.8241593853413782 -2.0058031583552243 Q 3.898125278139731 -2.0097460890599903 3.977338138393564 -1.9789187834624078 Q 4.072393570698164 -1.9419260167453092 4.127805534126329 -1.874756348672319 Q 4.1832174975544945 -1.807586680599329 4.192311196819919 -1.7289336156007544 L 4.015012248923862 -1.6841889726258539 Q 4.015590937307574 -1.7215207971158857 3.9996498047209292 -1.7481127186683987 Q 3.983708672134284 -1.7747046402209117 3.9598691224254328 -1.7920302244730861 Q 3.9360295727165813 -1.8093558087252608 3.9108678406359516 -1.819148011679787 Q 3.8717273685105287 -1.8343803273868275 3.8373198063916814 -1.8300652759343334 Q 3.802912244272834 -1.8257502244818395 3.774947679260076 -1.8076606389794792 Q 3.746983114247317 -1.7895710534771188 3.7261616641634157 -1.762263230121831 Q 3.705340214079514 -1.7349554067665434 3.693371966023982 -1.7042021786679964 Q 3.6799530212344465 -1.6697212865575044 3.6778731750282625 -1.6340467264374605 Q 3.6757933288220785 -1.5983721663174166 3.6857526990220144 -1.5660602343847603 Q 3.6957120692219507 -1.5337483024521037 3.7186953945605175 -1.5087079998105302 Q 3.741678719899084 -1.4836676971689566 3.7770915280125625 -1.4698860781959198 Q 3.8022532600931918 -1.4600938752413937 3.8314296387365654 -1.4578602841287498 Q 3.860606017379939 -1.4556266930161061 3.8889308949351418 -1.464991590852323 Q 3.9172557724903445 -1.4743564886885399 3.9400443383982107 -1.499825710582089 L 4.0537649354404355 -1.3536284951217392 Q 4.015335641835674 -1.3127850208199736 3.9562528128998107 -1.296075163701029 Q 3.8971699839639475 -1.2793653065820845 3.83231904520053 -1.283678743900912 Q 3.7674681064371125 -1.28799218121974 3.71062123025495 -1.3101153064132989 Q 3.6369998660190346 -1.3387665669098754 3.587383604603714 -1.3918770800232563 Q 3.5377673431883943 -1.4449875931366372 3.512541727680347 -1.5111402070097122 Q 3.4873161121722998 -1.5772928208827874 3.48684145511397 -1.6477628478494133 Q 3.4863667980556405 -1.7182328748160391 3.5110286425337063 -1.7816031630191056 M 4.078631173248997 -1.1591400203183795 L 4.449961877680185 -1.7642957919562599 L 4.616166631862419 -1.6623105984857225 L 4.474956363980136 -1.432180938848782 L 4.800270359571972 -1.5493423841798966 L 4.987783415572442 -1.434282165905444 L 4.601567425302455 -1.2981748227538952 L 4.631794688450384 -0.819712376408745 L 4.440872304158996 -0.9368645986518238 L 4.427365118311493 -1.2513714442537613 L 4.352051130823336 -1.231882901757371 L 4.244835927431232 -1.0571548268478421 L 4.078631173248997 -1.1591400203183795 M 5.317804319594034 -0.847904104255331 Q 5.317804319594034 -0.847904104255331 5.311623498237662 -0.8666336917403934 Q 5.305442676881289 -0.885363279225456 5.292643394643702 -0.91322774358784 Q 5.2798441124061135 -0.9410922079502242 5.261637796431378 -0.9703758221163082 Q 5.243431480456643 -0.9996594362823923 5.2193804912199155 -1.0207674896444354 Q 5.200590655878723 -1.0372581563335317 5.183288147919849 -1.0417994357053717 Q 5.165985639960975 -1.0463407150772115 5.153452733277262 -1.0320604402179052 Q 5.141579453261112 -1.0185317587722464 5.146349054536273 -0.9997102045411002 Q 5.151118655811434 -0.9808886503099538 5.167354021505967 -0.9546653228939909 Q 5.1835893872005 -0.928441995478028 5.2058295704817255 -0.89162658773049 Q 5.242242202431197 -0.8330593593983218 5.261168392929627 -0.7818558506004167 Q 5.280094583428057 -0.7306523418025116 5.272921132146561 -0.6830625151931194 Q 5.265747680865066 -0.6354726885837273 5.221552694138288 -0.5851159298693309 Q 5.179336587414202 -0.5370139513958778 5.133356178861277 -0.5194910512561711 Q 5.087375770308352 -0.5019681511164644 5.040913333819431 -0.5081521623966142 Q 4.994450897330511 -0.514336173676764 4.950788706798437 -0.5373549294628801 Q 4.907126516266363 -0.5603736852489962 4.869546845583978 -0.5933550186271886 Q 4.831215581487944 -0.626995978672945 4.796428227039917 -0.6714969895660395 Q 4.76164087259189 -0.7159980004591341 4.73476110843214 -0.7642030653249368 Q 4.707881344272391 -0.8124081301907394 4.692053494174636 -0.8595619122371776 L 4.867983501074461 -0.932675745895572 Q 4.867983501074461 -0.932675745895572 4.8750998493366495 -0.9104640915805225 Q 4.882216197598837 -0.8882524372654731 4.897124380235754 -0.8552108560311505 Q 4.91203256287267 -0.8221692747968279 4.934556576114636 -0.7864352737967195 Q 4.957080589356602 -0.7507012727966111 4.987895919316158 -0.7236565794264934 Q 5.0119469085528845 -0.7025485260644502 5.026948652897773 -0.7006917367359076 Q 5.041950397242663 -0.698834947407365 5.051185170588557 -0.7093572551984328 Q 5.065037330607398 -0.7251407168850347 5.056087982184132 -0.748295827828388 Q 5.047138633760866 -0.7714509387717413 5.027383147585794 -0.8027594163135588 Q 5.00762766141072 -0.8340678938553764 4.984543917969763 -0.8729541483516898 Q 4.951797286342446 -0.9296344634272502 4.93921365648698 -0.9759367555914684 Q 4.926630026631513 -1.0222390477556866 4.936426125138288 -1.062205114037541 Q 4.946222223645062 -1.1021711803193954 4.980522810358382 -1.141254037829076 Q 5.032633317095926 -1.2006299175072448 5.095402486781775 -1.2160581817307108 Q 5.1581716564676245 -1.2314864459541768 5.221782791351316 -1.212247851441876 Q 5.285393926235009 -1.193009256929575 5.3380054651903475 -1.1468353902001054 Q 5.377088322700028 -1.1125348034867852 5.405295269917394 -1.0711479924393423 Q 5.43350221713476 -1.0297611813918994 5.453571657198638 -0.9881983665747771 Q 5.473641097262516 -0.9466355517576548 5.487138059818221 -0.9135020037772483 L 5.317804319594034 -0.847904104255331" fill="#000000" fill-rule="nonzero"></path></g><g><path d=" M -1.8540723192174857 1.8181372013660515 Q -1.8345822142758736 1.8065554998777147 -1.8176025905172408 1.7894107520809324 Q -1.800622966758608 1.7722660042841503 -1.7861538241829544 1.7495582101789227 Q -1.7716846816073009 1.726850416073695 -1.7604959085928362 1.6999606158061067 Q -1.749307135578372 1.6730708155385186 -1.7433639356516821 1.6416275591131513 Q -1.72609151086474 1.5502455951269278 -1.752894836061288 1.5009091810050228 Q -1.7796981612578358 1.451572766883118 -1.839636868818692 1.4402435420228654 Q -1.8809061428769862 1.4324430921190852 -1.9082959476490473 1.4481290283215689 Q -1.9356857524211084 1.4638149645240524 -1.9585966787696978 1.5042635671432962 Q -1.981507605118287 1.5447121697625403 -2.009858533175186 1.608557489703101 Q -2.039695261213758 1.680263623750003 -2.071527374880196 1.7302207707815036 Q -2.103359488546634 1.7801779178130044 -2.145778804601383 1.8026912832976965 Q -2.1881981206561316 1.8252046487823885 -2.251084633506866 1.8133182489290092 Q -2.2992321199082095 1.8042177240412656 -2.3310770084302757 1.7788621906211777 Q -2.362921896952342 1.75350665720109 -2.380189689349259 1.7156407973041201 Q -2.3974574817461765 1.67777493740715 -2.4000283271317175 1.6294568170587378 Q -2.402599172517258 1.5811386967103256 -2.392198572645551 1.5261129979659331 Q -2.381983697771553 1.4720699009848333 -2.3613046651093796 1.4245843494122048 Q -2.340625632447206 1.3770987978395763 -2.310159467876212 1.3370605309398575 Q -2.2796933033052182 1.2970222640401385 -2.23805896667932 1.2652011701915393 L -2.1885510410914515 1.3101785567762008 Q -2.211731851313778 1.3251334903245815 -2.2338490946106906 1.34792224959193 Q -2.255966337907603 1.3707110088592789 -2.2757588250192455 1.4000454161983655 Q -2.295551312130888 1.4293798235374524 -2.309885512769673 1.4648344521781116 Q -2.324219713408458 1.500289080818771 -2.33164871331682 1.53959315135048 Q -2.34743533812209 1.6231143012303617 -2.3257966208511958 1.6755453599157466 Q -2.3041579035803013 1.727976418601132 -2.244219196019445 1.739305643461384 Q -2.2009847184345652 1.7474775433605827 -2.1704883717622905 1.7288168134808473 Q -2.139992025090016 1.7101560836011116 -2.114372995224005 1.666148523924115 Q -2.088753965357994 1.622140964247118 -2.0600315873056765 1.556330440779972 Q -2.0295837074992304 1.4867752352573644 -1.9994770955869212 1.4405627702813257 Q -1.9693704836746122 1.3943503053052868 -1.9307347353994324 1.3757014727622847 Q -1.8920989871242524 1.3570526402192826 -1.8360906866165672 1.3676389650886989 Q -1.7712389702392475 1.3798968149374964 -1.7325666524349725 1.420281859640272 Q -1.693894334630698 1.4606669043430476 -1.6813895180627352 1.5210397422968955 Q -1.6688847014947723 1.5814125802507437 -1.6826283513252422 1.6541251107344053 Q -1.691357426217568 1.7003073936091635 -1.7082140053760653 1.7383383775442827 Q -1.725070584534563 1.776369361479402 -1.7491649286947943 1.806926072354238 Q -1.773259272855026 1.837482783229074 -1.8053612703952011 1.8619462611897113 L -1.8540723192174857 1.8181372013660515 M -1.7591426744141558 2.6108299588952115 L -2.46907208858579 2.6008186206270203 L -2.468099155711839 2.5318254803765377 L -2.1361321620428497 2.5365068385526497 L -2.1301958614641054 2.1155486929663705 L -2.4621628551330947 2.110867334790259 L -2.4611758217827098 2.0408742939564357 L -1.7512464076110756 2.0508856322246265 L -1.7522334409614606 2.1208786730584497 L -2.068202025297005 2.116422922505283 L -2.074138325875749 2.537381068091562 L -1.7581697415402049 2.541836818644729 L -1.7591426744141558 2.6108299588952115 M -2.3974216894586173 3.213791868070867 Q -2.4106028909018336 3.139959247038471 -2.3917905529960244 3.0746362346881693 Q -2.3729782150902152 3.009313222337868 -2.3300127868279903 2.956946993007854 Q -2.2870473585657654 2.9045807636778402 -2.227769288939734 2.8696184917063077 Q -2.1684912193137027 2.8346562197347756 -2.101549642910997 2.822705263759593 Q -2.031654761666996 2.8102270597266816 -1.9637649737647305 2.823502100162981 Q -1.8958751858624647 2.8367771405992803 -1.8381646254917672 2.8726935883871683 Q -1.7804540651210696 2.908610036175056 -1.7406925236745119 2.963475962047073 Q -1.7009309822279537 3.01834188791909 -1.6884527781950425 3.088236769163091 Q -1.6752715767518265 3.1620693901954873 -1.6950683496047343 3.2275681518983648 Q -1.7148651224576423 3.2930669136012427 -1.7584106428697046 3.345028800133995 Q -1.8019561632817669 3.396990686666748 -1.8607420154342487 3.431865083961992 Q -1.9195278675867307 3.4667394812572363 -1.9854850090423375 3.478514687879843 Q -2.0553798902863387 3.490992891912754 -2.1232696781886045 3.477717851476455 Q -2.19115946609087 3.464442811040155 -2.2487821517852793 3.4290185807258164 Q -2.306404837479689 3.393594350411478 -2.3456741614526977 3.338640549863173 Q -2.384943485425706 3.2836867493148683 -2.3974216894586173 3.213791868070867 M -2.0892471882306625 2.8916157100564956 Q -2.146344415162382 2.901809172505916 -2.195672447133209 2.929916026863617 Q -2.245000479104037 2.958022881221318 -2.2797033020684614 2.999771702501682 Q -2.3144061250328862 3.0415205237820464 -2.330000937636856 3.093571477854446 Q -2.3455957502408253 3.1456224319268458 -2.335402287791405 3.202719658858565 Q -2.324681577284256 3.2627701906315805 -2.291054642533295 3.3060336770751695 Q -2.2574277077823344 3.3492971635187585 -2.2095258698667637 3.3757908217091717 Q -2.1616240319511935 3.4022844798995844 -2.1062854914085953 3.41068959326082 Q -2.050946950865997 3.419094706622056 -1.9968030287755738 3.409428492230364 Q -1.9397058018438544 3.3992350297809435 -1.8908699873465764 3.3712160500995307 Q -1.842034172849298 3.3431970704181175 -1.806927007087612 3.3008681569879164 Q -1.771819841325926 3.2585392435577143 -1.7566293715192178 3.207068381635152 Q -1.7414389017125094 3.1555975197125896 -1.7516323641619298 3.0985002927808702 Q -1.7621773253165025 3.039434195954954 -1.7953120425939142 2.9960828348350765 Q -1.8284467598713259 2.9527314737151995 -1.876348597786896 2.9262378155247863 Q -1.9242504357024663 2.8997441573343736 -1.9796768509213527 2.8908468264995886 Q -2.035103266140239 2.8819494956648035 -2.0892471882306625 2.8916157100564956 M -2.252751340726365 3.8012236239571093 L -1.585706254992635 3.5580141389478257 L -1.4849969752845655 3.834227174448835 Q -1.4692397410445275 3.8774441800034145 -1.4739021233770393 3.920123357490633 Q -1.4785645057095511 3.9628025349778513 -1.4995068996617853 4.000241366898057 Q -1.5204492936140195 4.037680198818263 -1.5520787712567432 4.0662428692824975 Q -1.583708248899467 4.094805539746732 -1.622227753850288 4.108850031134592 Q -1.6767187608538885 4.128717848219857 -1.7338380056187108 4.122401846518122 Q -1.790957250383533 4.116085844816387 -1.8367784884876266 4.083830393515747 Q -1.88259972659172 4.051574942215106 -1.903837737958728 3.993325934728499 L -1.9826239091589182 3.7772409069556003 L -2.228772940795872 3.8669886324097305 L -2.252751340726365 3.8012236239571093 M -1.9243749016723108 3.7560028955885927 L -1.846616376183427 3.969269422999236 Q -1.8322293362251316 4.008728428070809 -1.800001827764338 4.029974314694093 Q -1.7677743193035442 4.051220201317378 -1.7271894891383246 4.05451740626404 Q -1.6866046589731052 4.057814611210702 -1.6462061537807806 4.043085022681971 Q -1.6048681484677045 4.028012885582804 -1.5769576154086025 3.9965485860616514 Q -1.5490470823495008 3.965084286540499 -1.5399806582924958 3.927185738351702 Q -1.530914234235491 3.8892871901629054 -1.5442736284824796 3.8526466854535877 L -1.6199768625487496 3.645017158767455 L -1.9243749016723108 3.7560028955885927 M -1.1223029413536145 4.790032296307038 Q -1.1161399107192622 4.768214481260612 -1.1156275076997952 4.7440900653475655 Q -1.1151151046803283 4.71996564943452 -1.1202533292757466 4.693534632654853 Q -1.1253915538711647 4.6671036158751855 -1.1357880583749105 4.639897684644963 Q -1.1461845628786564 4.61269175341474 -1.1635204319073849 4.585794399548258 Q -1.213902801272127 4.507623964873794 -1.2673080001786834 4.490292354165289 Q -1.3207131990852399 4.4729607434567855 -1.371986279893222 4.5060072437928 Q -1.4072890568429801 4.528760571893005 -1.4163562811463128 4.558993590985267 Q -1.4254235054496454 4.589226610077529 -1.4141948201600574 4.634336660251158 Q -1.4029661348704696 4.679446710424788 -1.3795760901176628 4.745271521905427 Q -1.3518520781076742 4.8178206718526875 -1.3405479839977539 4.8759689087679545 Q -1.3292438898878334 4.934117145683222 -1.3445118492356847 4.97964888645109 Q -1.3597798085835358 5.025180627218958 -1.4135745163165006 5.059852365276416 Q -1.4547610894245517 5.086397914726656 -1.4953137847601519 5.089930463525752 Q -1.535866480095752 5.093463012324847 -1.5744588563386377 5.077886475613256 Q -1.6130512325815234 5.062309938901665 -1.6481795267632355 5.029034528342468 Q -1.6833078209449475 4.995759117783271 -1.7136455917452222 4.948688748516927 Q -1.743441616638349 4.90245892155891 -1.761133548403544 4.853781457056169 Q -1.7788254801687389 4.805103992553427 -1.7842918440530178 4.755090305767861 Q -1.7897582079372967 4.705076618982296 -1.7814673175245943 4.653334362207349 L -1.7145952991997508 4.651873826291391 Q -1.721112973130495 4.678679048292571 -1.7214661969868117 4.710433972838337 Q -1.7218194208431286 4.7421888973841035 -1.7159802711774124 4.777090965104819 Q -1.7101411215116962 4.811993032825534 -1.6961297173061118 4.847576463691426 Q -1.6821183131005275 4.883159894557318 -1.660448476814617 4.916781586890421 Q -1.6144000747070573 4.988227683098264 -1.5626103325593836 5.011359319622244 Q -1.51082059041171 5.0344909561462226 -1.459547509603728 5.001444455810209 Q -1.4225636480373147 4.9776076358957075 -1.4132911786381803 4.94307835395643 Q -1.404018709239046 4.908549072017153 -1.4157332935405698 4.8589933607959175 Q -1.4274478778420936 4.809437649574681 -1.4519214144091959 4.741931753477387 Q -1.4777213922965615 4.670521942239635 -1.4876990450862184 4.6162776204648255 Q -1.497676697875875 4.562033298690016 -1.4824925088708418 4.521909236031065 Q -1.4673083198658086 4.481785173372114 -1.4193974082911367 4.450905656664691 Q -1.3639216159415168 4.415150426792939 -1.3080701989303098 4.417818613038362 Q -1.2522187819191029 4.420486799283785 -1.2015865209659824 4.455666682040484 Q -1.150954260012862 4.490846564797184 -1.1108650628839274 4.553046695613425 Q -1.0854030052479826 4.592552184104821 -1.0714474479376102 4.631740733709991 Q -1.0574918906272377 4.670929283315162 -1.0539314183805364 4.709679419281122 Q -1.0503709461338349 4.748429555247084 -1.0568132112442465 4.7882729639899 L -1.1223029413536145 4.790032296307038 M -0.9702197074938317 5.837147969307561 L -0.5523254220991562 5.4378381068768 L -1.0545004546024692 5.5622175132521985 L -1.0848977451681328 5.530405491526652 L -0.9385091817856539 5.03368083086361 L -1.3564034671803293 5.4329906932943715 L -1.4047627930802484 5.382380658731003 L -0.8914324425089344 4.891878924603251 L -0.8416914215833032 4.943934960154145 L -1.0017049004907277 5.479957988174344 L -0.4575802044353736 5.3459232346860475 L -0.40853003102259833 5.3972562697431785 L -0.9218603815939124 5.88775800387093 L -0.9702197074938317 5.837147969307561 M -0.07233363952264815 5.64359415169836 L -0.023951760093723906 5.677360906693844 L -0.18838805865746666 6.42841729852781 L -0.24907041590730394 6.386065775313135 L -0.197458776898213 6.15136545848592 L -0.45904893855629536 5.968796054357796 L -0.6607264069805244 6.098762198910883 L -0.7222287960850893 6.055838357814929 L -0.07233363952264815 5.64359415169836 M -0.17910180310348722 6.097106620375436 L -0.09548278200045957 5.72743398234312 L -0.41527097726501616 5.932279070566972 L -0.17910180310348722 6.097106620375436 M 0.023664611003057348 6.542161593124159 L 0.325760015117254 5.8996365999814175 L 0.5972494488395392 6.027282545381782 Q 0.6388778286769563 6.046854923676505 0.6651822470730893 6.080217740896296 Q 0.6914866654692223 6.1135805581160865 0.7034498509211333 6.155118278249036 Q 0.7154130363730442 6.196655998381985 0.7126332743043142 6.238997147667771 Q 0.7098535122355842 6.281338296953558 0.692408566364201 6.318441852895603 Q 0.6707087556461391 6.364595056628391 0.6339150506441358 6.397021485235711 Q 0.5971213456421325 6.429447913843029 0.551805014960291 6.442397051788623 Q 0.5064886842784496 6.4553461897342155 0.4587955100362051 6.4439724862609005 L 0.4996760847961307 6.765967484059465 L 0.4281838672492623 6.732354051770702 L 0.3885322081268421 6.424197036713704 L 0.19848960452124248 6.334844874933449 L 0.08701214553825723 6.571945647050911 L 0.023664611003057348 6.542161593124159 M 0.22486976657065116 6.278737058630843 L 0.4348215953158851 6.377449923073792 Q 0.472830116037005 6.395320355429843 0.5106702133356691 6.387696246535839 Q 0.5485103106343332 6.380072137641834 0.5798504550536416 6.353369228665903 Q 0.6111905994729501 6.326666319689971 0.6290610318290011 6.288657798968851 Q 0.6473569506697201 6.249744313468657 0.6452403941681493 6.208416112581422 Q 0.6431238376665784 6.167087911694187 0.6232859282516916 6.132897893413309 Q 0.6034480188368048 6.0987078751324315 0.5672494276738334 6.081688415745717 L 0.3627273876030451 5.985528470210775 L 0.22486976657065116 6.278737058630843 M 1.4005588631881158 6.363976216783959 L 1.157269176498537 6.294556274760888 L 0.9794663210402377 6.917685590867004 L 0.9121529689917376 6.898478492283545 L 1.089955824450037 6.27534917617743 L 0.8466661377604577 6.205929234154359 L 0.8636781393629493 6.146308836625687 L 1.4175708647906076 6.304355819255287 L 1.4005588631881158 6.363976216783959 M 1.9351848252451627 7.024152032068832 L 1.927698384653279 7.085698382141474 L 1.4541885623202109 7.028101089200692 L 1.53992038200146 6.323296112562372 L 2.004496056743338 6.379806664126914 L 1.9970096161514541 6.441353014199556 L 1.6019217560077204 6.3932948955613345 L 1.5710100013057489 6.647421760377404 L 1.9154710250994063 6.689321677883592 L 1.9083468316329362 6.747889978759171 L 1.5638858078392788 6.705990061252983 L 1.5311628175102387 6.97500717205437 L 1.9351848252451627 7.024152032068832 M 2.192427035170716 7.094318421788508 L 2.1631403475232736 6.384922700116435 L 2.4628850186523183 6.372548043363993 Q 2.5088458682254386 6.370650595995286 2.547597254829439 6.388066968644816 Q 2.586348641433439 6.405483341294347 2.616164973005546 6.436780088275178 Q 2.645981304577653 6.46807683525601 2.663097442391725 6.506903859689125 Q 2.6802135802057974 6.545730884122239 2.6819047832952974 6.586695989176542 Q 2.6840084749432123 6.63765258326848 2.6663812698326903 6.683418636626745 Q 2.6487540647221683 6.7291846899850105 2.6145629931696504 6.761622640384051 Q 2.5803719216171324 6.794060590783091 2.5328252627949 6.806032024901116 L 2.7179793585503083 7.0726215236158945 L 2.639046595152993 7.075880183227371 L 2.4613815279940265 6.820991729366863 L 2.2515602582036953 6.829653989093572 L 2.26236745843416 7.091431001879604 L 2.192427035170716 7.094318421788508 M 2.2490028291415243 6.767706757060236 L 2.4808053748146524 6.758137022505015 Q 2.5227696287727186 6.756404570559674 2.5527945211050325 6.732145431242028 Q 2.582819413437347 6.707886291924383 2.598258112707271 6.669716977483946 Q 2.6136968119771953 6.631547663043511 2.6119643600318536 6.589583409085445 Q 2.6101906592306703 6.546620006223615 2.589201672369069 6.510955423925156 Q 2.568212685507467 6.475290841626698 2.534812246878721 6.454150579106868 Q 2.501411808249975 6.433010316587037 2.4614458520994353 6.434660270820696 L 2.2356381998488883 6.443982512240868 L 2.2490028291415243 6.767706757060236 M 2.949821942261132 7.115994924797704 L 2.953616170692308 7.030375979285557 L 2.930893318950163 7.033935755781979 L 2.9161898942910303 6.94008049858616 L 2.98139459929023 6.929865487770342 L 2.996098023949363 7.02372074496616 L 2.9844001949122227 7.110577873607498 L 2.949821942261132 7.115994924797704 M 3.5619777821175616 6.902146085489907 L 3.3327562823818413 6.230165800020975 L 3.39900785982244 6.207566497230129 L 3.6082128342291258 6.8208668141088165 L 3.9962577878097765 6.688499469191006 L 4.016274313138811 6.747179437781251 L 3.5619777821175616 6.902146085489907 M 4.193749572125666 6.661562856719211 L 3.8932748296120328 6.018278371354171 L 3.956697243662107 5.988654100965502 L 4.2571719861757416 6.631938586330543 L 4.193749572125666 6.661562856719211 M 4.131561979818025 5.90871954616399 L 4.676616264697993 6.303131547165464 L 4.561855851939884 5.640584909060953 L 4.623811379878535 5.601977752239412 L 4.749786121376225 6.360045271992495 L 4.695468946197134 6.393892642356586 L 4.069606451879375 5.9473267029855315 L 4.131561979818025 5.90871954616399 M 5.500912703816341 5.693401119127826 L 5.541926257437082 5.739897231001818 L 5.184206170922667 6.055436990309769 L 4.714534831072257 5.522981515623743 L 5.0655054819920595 5.213395336680093 L 5.106519035612799 5.259891448554084 L 4.80804399487331 5.52317200244206 L 4.977390280791203 5.7151559482443455 L 5.237618519827895 5.485612349754074 L 5.276647546660534 5.529858649763195 L 5.016419307623844 5.7594022482534655 L 5.195688227482239 5.962635253380103 L 5.500912703816341 5.693401119127826 M 6.09113595243057 4.761242425150828 Q 6.134392835818754 4.791866631908572 6.152662780689518 4.837882489114749 Q 6.170932725560283 4.883898346320925 6.163822071827168 4.934612630339215 Q 6.156711418094054 4.985326914357504 6.125509396114465 5.029399965356786 L 5.931941296796646 5.30281611507455 L 5.352462292917205 4.892567307565143 L 5.550075098787934 4.613437984569694 Q 5.578965859880146 4.572629604014804 5.621684557171553 4.558151589588606 Q 5.664403254462958 4.543673575162408 5.70954160714948 4.551737638452536 Q 5.754679959836001 4.559801701742666 5.791407502335403 4.585803386725656 Q 5.8346643857235865 4.616427593483401 5.855790917233193 4.664465803966032 Q 5.8769174487428 4.712504014448664 5.867138005538428 4.764391994661931 Q 5.917075751070687 4.725006444378161 5.97758040438995 4.724345440054557 Q 6.038085057709213 4.723684435730952 6.09113595243057 4.761242425150828 M 6.0408948755683 4.811440375265543 Q 6.011512841568779 4.79063902727915 5.977374685880788 4.786074344790467 Q 5.943236530192797 4.781509662301782 5.9118394269812224 4.792975782391931 Q 5.880442323769648 4.80444190248208 5.860218791005099 4.8330077688705035 L 5.703053050663468 5.055005359089106 L 5.922602138048776 5.210437653765205 L 6.075723171837499 4.994153236824287 Q 6.096524519823892 4.964771202824767 6.097773976646517 4.93012385288789 Q 6.09902343346914 4.895476502951013 6.084242087712932 4.863570205490552 Q 6.069460741956723 4.831663908030091 6.0408948755683 4.811440375265543 M 5.4426955827232675 4.870682303320795 L 5.656531496830892 5.0220698914439845 L 5.797518410960886 4.8229249943361205 Q 5.8177419437254345 4.794359127947697 5.8182438539099195 4.761633020843938 Q 5.8187457640944045 4.728906913740179 5.803505779310978 4.698513775307287 Q 5.788265794527552 4.668120636874395 5.760516095750226 4.648474919331691 Q 5.731134061750706 4.627673571345299 5.698389888895656 4.622870536467361 Q 5.665645716040608 4.618067501589422 5.635931503272897 4.6288871854847695 Q 5.606217290505187 4.639706869380117 5.587149388184327 4.666640400546344 L 5.4426955827232675 4.870682303320795 M 6.52330060832025 4.1787074493043095 L 6.5790712022304065 4.205793254718003 L 6.37068524767667 4.634867017542914 L 5.732021994834559 4.324690858773202 L 5.936476138925017 3.9037128273223454 L 5.992246732835174 3.930798632736039 L 5.818373336792433 4.288809864610912 L 6.048651918098885 4.40064802889971 L 6.200245054849716 4.088512608144481 L 6.253317071635188 4.114287810070414 L 6.101723934884356 4.426423230825644 L 6.345495401814232 4.544814412553238 L 6.52330060832025 4.1787074493043095 M 6.197652922817251 3.290859626513002 L 6.124045924665689 3.5329154254997563 L 6.744014927604094 3.7214424405282633 L 6.72364935499299 3.788414400722227 L 6.103680352054584 3.59988738569372 L 6.030073353903022 3.841943184680474 L 5.97075533201694 3.8239051060820675 L 6.138334900931168 3.272821547914596 L 6.197652922817251 3.290859626513002 M 6.290237580991963 2.6601633333761496 L 6.255390334764345 2.9107519792289733 L 6.897214218213474 3.0000050051400273 L 6.887572687636663 3.069337832055828 L 6.245748804187534 2.9800848061447742 L 6.210901557959915 3.2306734519975975 L 6.149492482691635 3.2221338106295647 L 6.228828505723683 2.651623692008117 L 6.290237580991963 2.6601633333761496 M 6.869489514491348 2.0387743859931997 L 6.931478636730843 2.037613040232099 L 6.9404135065380235 2.5145293516553178 L 6.23053807444057 2.527828633758248 L 6.221771787082583 2.0599107433052786 L 6.283760909322078 2.0587493975441777 L 6.291215999853017 2.4566795693396517 L 6.5471710852289995 2.451884335229299 L 6.540671295243484 2.1049452155985717 L 6.59966094382623 2.1038400639872017 L 6.606160733811746 2.450779183617929 L 6.877113187471478 2.445702978758923 L 6.869489514491348 2.0387743859931997 M 6.903132032385675 1.774265297674087 L 6.204735257903706 1.902100916314519 L 6.150720207773946 1.607003687660166 Q 6.142437900087383 1.5617554459331653 6.1542854848857225 1.5209555104620625 Q 6.1661330696840615 1.4801555749909596 6.1929705063592895 1.4462697078380722 Q 6.2198079430345175 1.4123838406851845 6.255871633883969 1.3900251689376244 Q 6.291935324733421 1.3676664971900645 6.332265279316183 1.3602844403389973 Q 6.382431808187423 1.3511018818169382 6.430207370744011 1.362180944160007 Q 6.477982933300598 1.373260006503076 6.514868094526903 1.4025982900470992 Q 6.551753255753208 1.4319365735911225 6.570232238062447 1.477351628504827 L 6.8084256444914955 1.2568614901001214 L 6.822649607692332 1.334570426979101 L 6.594999739239764 1.5460143613766812 L 6.632810274330596 1.7525824214347283 L 6.890528520688731 1.705409277654738 L 6.903132032385675 1.774265297674087 M 6.5718235137420296 1.763745531794879 L 6.530051874975015 1.535537008302179 Q 6.5224897679568485 1.4942233962905698 6.494284091913273 1.4678711698395683 Q 6.466078415869697 1.4415189433885667 6.426130409447217 1.4315486483643733 Q 6.386182403024737 1.42157835334018 6.344868791013127 1.4291404603583464 Q 6.30257152157267 1.436882617543612 6.270179003678158 1.4626357685052658 Q 6.237786485783646 1.4883889194669195 6.221505824065294 1.5244089146642064 Q 6.205225162346942 1.5604289098614934 6.212427169030909 1.5997752070154072 L 6.253118506795328 1.8220817859350196 L 6.5718235137420296 1.763745531794879" fill="#ba8437" fill-rule="nonzero"></path></g><g clip-path="url(#SvgjsClipPath1001)"><g clip-path="url(#SvgjsClipPath1000493a3819-9b0a-4ad1-b6d0-06a517a2955c)"><path d=" M 0.10064941309445702 0.9009857806663257 L 0.8864089691147085 0.44702222091610766 L 1.6319087598971669 0.8780793625137927 C 2.0039997696755436 1.0997268546492651 2.4676107072524016 1.0997268546492651 2.8397017170307657 0.878079362513799 L 3.585201507813224 0.44702222091610766 L 4.370961063833476 0.9009857806663257 L 3.1270731447625515 1.61941434999579 C 2.577874954264675 1.9463785647304093 1.8937355226632706 1.9463785647304093 1.344537332165394 1.61941434999579 Z" fill="#ba8437" transform="matrix(1,0,0,1,0,0)" fill-rule="evenodd"></path></g><g clip-path="url(#SvgjsClipPath1000493a3819-9b0a-4ad1-b6d0-06a517a2955c)"><path d=" M 2.337148785441845 4.774252850094752 L 3.122214207578681 4.320289290344539 L 3.122214207578681 3.4595632749159946 C 3.1162776778771497 3.0264706095243907 3.3480872399620742 2.624933816349709 3.726110686145487 2.4135035126169577 L 4.471610476927945 1.983140504902688 L 4.471610476927945 1.0759075192856737 L 3.228416691740424 1.793641954731729 C 2.670426871002763 2.1055608863193083 2.328271954282213 2.698203047367984 2.3371487854418325 3.3373957114358226 Z" fill="#000000" transform="matrix(1,0,0,1,0,0)" fill-rule="evenodd"></path></g><g clip-path="url(#SvgjsClipPath1000493a3819-9b0a-4ad1-b6d0-06a517a2955c)"><path d=" M 0 1.0759075192856737 L 0 1.983140504902688 L 0.7454997907824584 2.414197646500373 C 1.1233023912893847 2.6255088814456227 1.3550766202789022 3.0267180640412534 1.3493962693492514 3.459563274916001 L 1.3493962693492514 4.3202892903445465 L 2.1344616914861003 4.774252850094758 L 2.1344616914861003 3.3367015775524136 C 2.1430821871610926 2.697756354822425 1.800962642776928 2.1054419099891084 1.2431937851874832 1.793641954731729 Z" fill="#000000" transform="matrix(1,0,0,1,0,0)" fill-rule="evenodd"></path></g><g clip-path="url(#SvgjsClipPath1000493a3819-9b0a-4ad1-b6d0-06a517a2955c)"><path d=" M 1.2015457521828974 0.28737142773178576 L 1.158509451411468 0.3123602475345525 L 1.7318640391082212 0.6323559677866117 C 1.8103045443471497 0.6780686501720767 1.8942863160978183 0.7135276204668061 1.9817522371358505 0.7378643180649518 C 2.0656726078322145 0.7608116301536956 2.1522747583618256 0.772483079012137 2.239275907881012 0.772571012235459 C 2.3262770574001856 0.772483079012137 2.412879207929809 0.7608116301536956 2.4967995786261605 0.7378643180649518 C 2.5835563604339646 0.7137028445396874 2.666842521031673 0.678475364847104 2.744605375003569 0.633050101670021 L 3.315183427166686 0.3054189087004485 L 3.3082420883325816 0.30125410539998737 C 2.9913051170495204 0.1083753511623524 2.6283120552041814 0.004320536868507375 2.2573233888496747 0 C 1.8860234625041639 -0.0004061714998004667 1.5214176887388853 0.09883563674400879 1.2015457521828974 0.2873714277317794 Z" fill="#000000" transform="matrix(1,0,0,1,0,0)" fill-rule="evenodd"></path></g><g clip-path="url(#SvgjsClipPath1000493a3819-9b0a-4ad1-b6d0-06a517a2955c)"><path d=" M 4.454257129842685 2.3336781160248 L 4.454257129842685 2.2837004764192663 L 3.88992628263027 2.62035540987317 C 3.81126501811682 2.6652387869178877 3.7387100044969235 2.720063314894335 3.6740506448897197 2.7834768724745502 C 3.6119662766824794 2.845447724517845 3.5585012088268657 2.9154892981278246 3.515093985588807 2.991717037497581 C 3.471591643893371 3.0669790889324338 3.4384372193671258 3.147763813482312 3.416526974144571 3.2318873611574763 C 3.3939581482736996 3.318925119073253 3.3827588261530055 3.4085196960388457 3.3832085477408818 3.498434772386963 L 3.3832085477408818 4.15716782774316 L 3.390149886574986 4.1530030244426985 C 3.715455085484596 3.974708445766651 3.9870281010623017 3.712483486329743 4.176603576478652 3.393620555992032 C 4.362367317863172 3.071530679026349 4.4582557631659725 2.705476539082902 4.454257129842685 2.3336781160248 Z" fill="#ba8437" transform="matrix(1,0,0,1,0,0)" fill-rule="evenodd"></path></g><g clip-path="url(#SvgjsClipPath1000493a3819-9b0a-4ad1-b6d0-06a517a2955c)"><path d=" M 0.017353347085247266 2.3336781160248 L 0.017353347085247266 2.2837004764192663 L 0.5816841942976755 2.62035540987317 C 0.6601117531193453 2.6655924260576267 0.7326241006827033 2.7203847144093607 0.7975598320382257 2.7834768724745502 C 0.8596442002454658 2.845447724517845 0.9131092681010796 2.9154892981278246 0.9565164913391384 2.991717037497581 C 0.9997303257904764 3.06712054027264 1.0328685603370789 3.147865815998852 1.0550835027833745 3.2318873611574763 C 1.0772954520355913 3.318993022981962 1.0884890401670275 3.4085417280334576 1.0884019291870635 3.498434772386963 L 1.0884019291870635 4.15716782774316 L 1.0814605903529595 4.1530030244426985 C 0.7574995002323163 3.973429889168002 0.4874178685518362 3.7105376531844465 0.2991717037497473 3.391538154341811 C 0.11231316507135251 3.070468627797557 0.01499247683788109 2.7051564877290666 0.017353347085247266 2.3336781160248 Z" fill="#ba8437" transform="matrix(1,0,0,1,0,0)" fill-rule="evenodd"></path></g></g><g><path d=" M -1.3869175324757124 2.3871264250473776 A 3.622722770939685 3.622722770939685 0 0 1 5.858528009403658 2.3871264250473776 A 3.622722770939685 3.622722770939685 0 0 1 -1.386917532475712 2.3871264250473776 Z M -1.3369175324757125 2.3871264250473776 A 3.572722770939685 3.572722770939685 0 0 0 5.808528009403657 2.3871264250473776 A 3.572722770939685 3.572722770939685 0 0 0 -1.336917532475713 2.3871264250473776 Z" fill="#000000" fill-rule="nonzero"></path></g><g transform="matrix(0.6549205436408551,-0.7556977448141333,0.7556977448141333,0.6549205436408551,-0.722083273330672,-1.082434244497239)"><g clip-path="url(#SvgjsClipPath1002)"><path d=" M -1.5462659413901283 0.4475244845950482 C -1.4359994962177145 0.4475244845950482 -1.3446629605280593 0.35638335442263436 -1.3446629605280593 0.24592150373297922 C -1.3446629605280593 0.13565550266401374 -1.4359994962177145 0.044319189026082714 -1.5462659413901283 0.044319189026082714 C -1.6567280141315075 0.044319189026082714 -1.7478689222521973 0.13565550266401374 -1.7478689222521973 0.24592150373297922 C -1.7478689222521973 0.35638335442263436 -1.6565328306659903 0.4475244845950482 -1.5462659413901283 0.4475244845950482 Z M -1.5462659413901283 0.4079082364915999 L -1.5462659413901283 0.08413239700884134 C -1.4566858348384042 0.08413239700884134 -1.3844768346659904 0.1561482121812551 -1.384281429148749 0.24592150373297922 C -1.384281429148749 0.3356970158019447 -1.4564904293211627 0.4079082364915999 -1.5462659413901283 0.4079082364915999 Z" fill="#000000" transform="matrix(1,0,0,1,0,0)" fill-rule="nonzero"></path></g></g><g transform="matrix(-0.6549205436408551,-0.7556977448141333,-0.7556977448141333,0.6549205436408551,10.147605976655534,4.633771078187306)"><g clip-path="url(#SvgjsClipPath1003)"><path d=" M 6.017876418318074 0.4475244845950482 C 6.1281428634904875 0.4475244845950482 6.219479399180143 0.35638335442263436 6.219479399180143 0.24592150373297922 C 6.219479399180143 0.13565550266401374 6.1281428634904875 0.044319189026082714 6.017876418318074 0.044319189026082714 C 5.9074143455766945 0.044319189026082714 5.816273437456005 0.13565550266401374 5.816273437456005 0.24592150373297922 C 5.816273437456005 0.35638335442263436 5.907609529042212 0.4475244845950482 6.017876418318074 0.4475244845950482 Z M 6.017876418318074 0.4079082364915999 L 6.017876418318074 0.08413239700884134 C 6.107456524869797 0.08413239700884134 6.1796655250422114 0.1561482121812551 6.179860930559453 0.24592150373297922 C 6.179860930559453 0.3356970158019447 6.107651930387039 0.4079082364915999 6.017876418318074 0.4079082364915999 Z" fill="#000000" transform="matrix(1,0,0,1,0,0)" fill-rule="nonzero"></path></g></g></g><defs><clipPath id="SvgjsClipPath1001"><path d=" M 0 0 h 4.471610476927945 v 4.774252850094755 h -4.471610476927945 Z"></path></clipPath><clipPath id="SvgjsClipPath1000493a3819-9b0a-4ad1-b6d0-06a517a2955c"><path d=" M -3.9715879269123857e-16 0 L 4.471610476927945 0 L 4.471610476927945 4.774252850094755 L -7.943175853824771e-16 4.774252850094755 Z"></path></clipPath><clipPath id="SvgjsClipPath1002"><path d=" M -1.8571383551832317 -0.07253841747391726 h 0.6217448275862067 v 0.6439499999999999 h -0.6217448275862067 Z"></path></clipPath><clipPath id="SvgjsClipPath1003"><path d=" M 5.70700400452497 -0.07253841747391726 h 0.6217448275862067 v 0.6439499999999999 h -0.6217448275862067 Z"></path></clipPath></defs></svg>